<svg xmlns="http://www.w3.org/2000/svg" width="1200" height="675" viewBox="0 0 1200 675"><rect width="1200" height="675" rx="36" fill="#f8fafc"/><rect x="72" y="66" width="1056" height="543" rx="34" fill="#fff"/><text x="120" y="135" font-family="Arial" font-size="20" font-weight="700" fill="#0f766e">COMMERCE / 18</text><g transform="translate(150 215)"><rect width="430" height="295" rx="28" fill="#ecfdf5"/><rect x="50" y="80" width="80" height="140" rx="16" fill="#99f6e4"/><rect x="175" y="55" width="80" height="165" rx="16" fill="#5eead4"/><rect x="300" y="25" width="80" height="195" rx="16" fill="#0f766e"/></g><g transform="translate(650 250)"><circle cx="100" cy="100" r="70" fill="#ccfbf1"/><circle cx="285" cy="100" r="70" fill="#fef3c7"/><path d="M170 100H215" stroke="#0f766e" stroke-width="12" stroke-linecap="round"/><path d="M205 84l22 16-22 16" fill="none" stroke="#0f766e" stroke-width="8"/><path d="M60 230C130 205 205 210 270 170S350 145 395 105" fill="none" stroke="#14b8a6" stroke-width="11" stroke-linecap="round"/></g></svg>