<svg xmlns="http://www.w3.org/2000/svg" width="1200" height="675" viewBox="0 0 1200 675"><rect width="1200" height="675" rx="40" fill="#f8f6ff"/><rect x="90" y="90" width="1020" height="500" rx="34" fill="#fff" stroke="#ddd7f2"/><text x="140" y="160" font-family="Arial" font-size="34" font-weight="700" fill="#10122a">Bid Strategy • Volume vs Value</text><g transform="translate(150 240)"><rect width="260" height="250" rx="28" fill="#eee9ff"/><text x="130" y="48" text-anchor="middle" font-family="Arial" font-size="19" font-weight="700" fill="#6c3bff">AUCTION</text><g fill="#6c3bff"><rect x="48" y="92" width="36" height="112" rx="8"/><rect x="112" y="66" width="36" height="138" rx="8"/><rect x="176" y="118" width="36" height="86" rx="8"/></g><text x="130" y="230" text-anchor="middle" font-family="Arial" font-size="15" fill="#6b6680">Signals • Bid • Context</text></g><path d="M445 365H555" stroke="#6c3bff" stroke-width="8"/><polygon points="555,365 530,350 530,380" fill="#6c3bff"/><g transform="translate(590 225)"><rect width="300" height="280" rx="28" fill="#e9fbff"/><text x="150" y="50" text-anchor="middle" font-family="Arial" font-size="19" font-weight="700" fill="#18aeb4">SMART BIDDING</text><text x="40" y="110" font-family="Arial" font-size="17" fill="#10122a">Max Conversions</text><text x="40" y="155" font-family="Arial" font-size="17" fill="#10122a">Target CPA</text><text x="40" y="200" font-family="Arial" font-size="17" fill="#10122a">Max Conv. Value</text><text x="40" y="245" font-family="Arial" font-size="17" fill="#10122a">Target ROAS</text></g><g transform="translate(935 260)"><rect width="120" height="200" rx="24" fill="#fff0f8"/><path d="M22 150L48 120L70 130L98 78" fill="none" stroke="#f642a0" stroke-width="8"/><text x="60" y="45" text-anchor="middle" font-family="Arial" font-size="16" font-weight="700" fill="#10122a">VALUE</text></g></svg>