<svg xmlns="http://www.w3.org/2000/svg" width="1200" height="675" viewBox="0 0 1200 675"><rect width="1200" height="675" rx="40" fill="#f8f6ff"/><rect x="90" y="90" width="1020" height="500" rx="34" fill="#fff" stroke="#ddd7f2"/><text x="140" y="160" font-family="Arial" font-size="34" font-weight="700" fill="#10122a">Creative Strategy • Test → Learn → Scale</text><g transform="translate(145 235)"><rect width="250" height="250" rx="28" fill="#eee9ff"/><text x="125" y="50" text-anchor="middle" font-family="Arial" font-size="19" font-weight="700" fill="#6c3bff">AUDIENCE</text><circle cx="85" cy="105" r="28" fill="#6c3bff"/><path d="M55 165c0-42 60-42 60 0" fill="#cfc4ff"/><text x="165" y="115" font-family="Arial" font-size="16" fill="#6b6680">Pain</text><text x="165" y="145" font-family="Arial" font-size="16" fill="#6b6680">Desire</text><text x="165" y="175" font-family="Arial" font-size="16" fill="#6b6680">State</text></g><path d="M430 360H535" stroke="#6c3bff" stroke-width="8"/><polygon points="535,360 510,345 510,375" fill="#6c3bff"/><g transform="translate(570 225)"><rect width="260" height="270" rx="28" fill="#e9fbff"/><text x="130" y="48" text-anchor="middle" font-family="Arial" font-size="19" font-weight="700" fill="#18aeb4">MESSAGE MATRIX</text><g fill="#18aeb4"><rect x="45" y="85" width="70" height="55" rx="12"/><rect x="145" y="85" width="70" height="55" rx="12"/><rect x="45" y="165" width="70" height="55" rx="12"/><rect x="145" y="165" width="70" height="55" rx="12"/></g><text x="130" y="250" text-anchor="middle" font-family="Arial" font-size="15" fill="#6b6680">Angle • Hook • Proof • Format</text></g><path d="M865 360H950" stroke="#f642a0" stroke-width="8"/><polygon points="950,360 925,345 925,375" fill="#f642a0"/><g transform="translate(975 250)"><rect width="95" height="220" rx="22" fill="#fff0f8"/><path d="M18 165L42 125L60 140L78 80" fill="none" stroke="#f642a0" stroke-width="7"/><circle cx="78" cy="80" r="8" fill="#f642a0"/><text x="48" y="200" text-anchor="middle" font-family="Arial" font-size="14" font-weight="700" fill="#10122a">SCALE</text></g></svg>