<svg xmlns="http://www.w3.org/2000/svg" width="1200" height="675" viewBox="0 0 1200 675"><rect width="1200" height="675" rx="36" fill="#eef2ff"/><rect x="72" y="66" width="1056" height="543" rx="34" fill="#fff"/><text x="120" y="135" font-family="Arial" font-size="20" font-weight="700" fill="#4f46e5">GROWTH / 05</text><g transform="translate(155 205)"><circle cx="230" cy="170" r="135" fill="none" stroke="#c7d2fe" stroke-width="34"/><path d="M230 35 A135 135 0 1 1 95 170" fill="none" stroke="#22c55e" stroke-width="34" stroke-linecap="round"/><path d="M87 139l8 31 28-15" fill="none" stroke="#22c55e" stroke-width="14" stroke-linecap="round"/></g><g transform="translate(630 220)"><rect width="410" height="250" rx="28" fill="#f8fafc"/><path d="M50 190L125 165L200 135L275 120L350 70" fill="none" stroke="#4f46e5" stroke-width="11" stroke-linecap="round"/><g fill="#4f46e5"><circle cx="50" cy="190" r="10"/><circle cx="125" cy="165" r="10"/><circle cx="200" cy="135" r="10"/><circle cx="275" cy="120" r="10"/><circle cx="350" cy="70" r="10"/></g></g></svg>