<svg xmlns="http://www.w3.org/2000/svg" width="1200" height="675" viewBox="0 0 1200 675"><defs><linearGradient id="g" x1="0" y1="0" x2="1" y2="1"><stop stop-color="#f8fafc"/><stop offset="1" stop-color="#e0e7ff"/></linearGradient></defs><rect width="1200" height="675" rx="36" fill="url(#g)"/><rect x="85" y="72" width="1030" height="530" rx="34" fill="#fff" opacity=".9"/><g fill="#6366f1" opacity=".18" stroke="#6366f1" stroke-width="6"><path d="M280 220 h110 l45 45 -45 45 h-110 z"/><path d="M760 250 h110 l45 45 -45 45 h-110 z"/><path d="M700 430 h110 l45 45 -45 45 h-110 z"/></g><g fill="#22c55e" opacity=".18" stroke="#22c55e" stroke-width="6"><path d="M520 200 h110 l45 45 -45 45 h-110 z"/><path d="M430 420 h110 l45 45 -45 45 h-110 z"/></g><path d="M335 330 C430 330 470 315 520 290 M675 290 C720 315 760 330 815 335 M485 445 C540 420 590 415 650 445" fill="none" stroke="#94a3b8" stroke-width="8" stroke-linecap="round"/></svg>