<svg xmlns="http://www.w3.org/2000/svg" width="1200" height="675" viewBox="0 0 1200 675"><rect width="1200" height="675" fill="#f8fbff"/><rect x="70" y="70" width="1060" height="535" rx="36" fill="#fff" stroke="#dce8f5"/><text x="120" y="145" font-family="Arial" font-size="24" font-weight="700" fill="#0f766e">POB · MARTECH &amp; AUTOMATION</text><text x="120" y="225" font-family="Arial" font-size="50" font-weight="800" fill="#0f172a">MARKETING DATA PIPELINE</text><text x="120" y="275" font-family="Arial" font-size="24" fill="#64748b">Source → Raw → Transform → Mart → Dashboard</text><g transform="translate(100 390)"><rect x="0" y="0" width="155" height="95" rx="20" fill="#dbeafe"/><rect x="200" y="0" width="155" height="95" rx="20" fill="#ccfbf1"/><rect x="400" y="0" width="155" height="95" rx="20" fill="#f3e8ff"/><rect x="600" y="0" width="155" height="95" rx="20" fill="#fef3c7"/><rect x="800" y="0" width="155" height="95" rx="20" fill="#dcfce7"/><path d="M165 48h25M365 48h25M565 48h25M765 48h25" stroke="#60a5fa" stroke-width="9" stroke-linecap="round"/><text x="43" y="58" font-family="Arial" font-size="21" font-weight="800" fill="#2563eb">SOURCE</text><text x="249" y="58" font-family="Arial" font-size="21" font-weight="800" fill="#0f766e">RAW</text><text x="423" y="58" font-family="Arial" font-size="21" font-weight="800" fill="#7c3aed">TRANSFORM</text><text x="650" y="58" font-family="Arial" font-size="21" font-weight="800" fill="#b45309">MART</text><text x="824" y="58" font-family="Arial" font-size="21" font-weight="800" fill="#15803d">DASHBOARD</text></g></svg>