<svg xmlns="http://www.w3.org/2000/svg" width="1200" height="675" viewBox="0 0 1200 675"><rect width="1200" height="675" rx="40" fill="#f8f6ff"/><rect x="80" y="80" width="1040" height="515" rx="34" fill="#fff" stroke="#ddd7f2"/><text x="130" y="155" font-family="Arial" font-size="34" font-weight="700" fill="#10122a">Project Management • Marketing</text><text x="130" y="195" font-family="Arial" font-size="18" fill="#6b6680">Scope • Owner • Timeline • Dependency • Review</text><g transform="translate(145 255)"><rect width="170" height="95" rx="20" fill="#eee9ff"/><text x="85" y="58" text-anchor="middle" font-family="Arial" font-size="20" font-weight="700" fill="#6c3bff">SCOPE</text><path d="M170 48H245" stroke="#6c3bff" stroke-width="7"/><polygon points="245,48 222,34 222,62" fill="#6c3bff"/><rect x="245" width="170" height="95" rx="20" fill="#e9fbff"/><text x="330" y="58" text-anchor="middle" font-family="Arial" font-size="20" font-weight="700" fill="#18aeb4">OWNER</text><path d="M415 48H490" stroke="#18aeb4" stroke-width="7"/><polygon points="490,48 467,34 467,62" fill="#18aeb4"/><rect x="490" width="170" height="95" rx="20" fill="#fff0f8"/><text x="575" y="58" text-anchor="middle" font-family="Arial" font-size="20" font-weight="700" fill="#f642a0">BUILD</text><path d="M660 48H735" stroke="#f642a0" stroke-width="7"/><polygon points="735,48 712,34 712,62" fill="#f642a0"/><rect x="735" width="170" height="95" rx="20" fill="#f2f7ff"/><text x="820" y="58" text-anchor="middle" font-family="Arial" font-size="20" font-weight="700" fill="#3f66ff">QA</text></g><g transform="translate(160 420)"><rect width="840" height="85" rx="18" fill="#faf9ff" stroke="#ddd6f3"/><line x1="70" y1="42" x2="770" y2="42" stroke="#cfc8e7" stroke-width="6"/><g fill="#6c3bff"><circle cx="100" cy="42" r="12"/><circle cx="300" cy="42" r="12"/><circle cx="520" cy="42" r="12"/><circle cx="740" cy="42" r="12"/></g><text x="100" y="73" text-anchor="middle" font-family="Arial" font-size="14" fill="#6b6680">Brief</text><text x="300" y="73" text-anchor="middle" font-family="Arial" font-size="14" fill="#6b6680">Milestone</text><text x="520" y="73" text-anchor="middle" font-family="Arial" font-size="14" fill="#6b6680">Review</text><text x="740" y="73" text-anchor="middle" font-family="Arial" font-size="14" fill="#6b6680">Launch</text></g></svg>